<svg width="652" height="383" viewBox="0 0 652 383" fill="none" xmlns="http://www.w3.org/2000/svg">
<path d="M97.9941 123.532C65.2656 143.156 32.4101 116.792 10.4949 148.032C-10.9372 178.584 26.9632 201.874 23.4958 239.032C20.5818 270.261 -11.6275 288.129 4.49494 315.032C20.2086 341.253 53.8848 314.021 81.9949 326.032C112.48 339.059 115.656 370.798 147.495 380.032C191.162 392.697 213.706 350.548 258.995 346.532C314.984 341.568 347.072 385.9 400.995 370.032C432.767 360.683 439.913 348.117 472.994 346.532C508.951 344.81 518.527 368.568 554.495 370.032C593.41 371.617 627.01 361.081 643.995 326.032C663.437 285.912 643.372 244.529 618.494 207.532C604.84 187.226 589.252 190.684 579.995 168.032C565.859 133.443 604.464 105.273 579.995 77.0323C555.828 49.1412 521.393 85.5937 485.495 77.0323C432.447 64.3809 423.504 -1.67045 368.995 0.0323403C321.289 1.52261 312.942 59.8492 265.495 65.0323C221.968 69.7873 199.079 15.0946 158.495 31.5323C114.684 49.2773 138.534 99.2253 97.9941 123.532Z" fill="#E8DBCE"/>
<path d="M326.907 207.848H535.692V318.869C466.097 319.311 326.907 319.929 326.907 318.869V207.848Z" fill="#EACEB2"/>
<path d="M216.217 346.707H178.106M216.217 346.707V309.921M216.217 346.707L178.106 309.921M178.106 346.707V309.921M178.106 346.707L216.217 309.921M216.217 309.921H178.106M216.217 309.921V271.81M216.217 309.921L178.106 271.81M178.106 309.921V271.81M178.106 309.921L216.217 271.81M216.217 271.81H178.106M216.217 271.81V235.024M216.217 271.81L178.106 235.024M178.106 271.81V235.024M178.106 271.81L216.217 235.024M216.217 235.024H178.106M216.217 235.024V197.244M216.217 235.024L178.106 197.244M178.106 235.024V197.244M178.106 235.024L216.217 197.244M216.217 197.244H178.106M216.217 197.244V159.464M216.217 197.244L197.162 178.354M178.106 197.244V159.464M178.106 197.244L197.162 178.354M216.217 159.464H178.106M216.217 159.464L197.162 178.354M216.217 159.464V122.678M216.217 159.464L197.162 141.071M178.106 159.464L197.162 178.354M178.106 159.464V122.678M178.106 159.464L197.162 141.071M216.217 122.678H178.106M216.217 122.678L197.162 141.071M216.217 122.678V84.5661M216.217 122.678L197.162 103.622M178.106 122.678L197.162 141.071M178.106 122.678V84.5661M178.106 122.678L197.162 103.622M216.217 84.5661H178.106M216.217 84.5661L197.162 103.622M216.217 84.5661V47.7802M216.217 84.5661L197.162 66.1731M216.217 84.5661H255.655M216.217 84.5661L255.655 47.7802M178.106 84.5661L197.162 103.622M178.106 84.5661V47.7802M178.106 84.5661L197.162 66.1731M178.106 84.5661H139M178.106 84.5661L139 47.7802M216.217 47.7802H178.106M216.217 47.7802L197.162 66.1731M216.217 47.7802V10M216.217 47.7802L197.162 28.8901M216.217 47.7802H255.655M216.217 47.7802L255.655 84.5661M178.106 47.7802L197.162 66.1731M178.106 47.7802V10M178.106 47.7802L197.162 28.8901M178.106 47.7802H139M178.106 47.7802L139 84.5661M216.217 10H178.106M216.217 10L197.162 28.8901M178.106 10L197.162 28.8901M139 47.7802V84.5661M255.655 84.5661V47.7802M255.655 84.5661H294.098M255.655 84.5661L294.098 47.7802M255.655 47.7802H294.098M255.655 47.7802L294.098 84.5661M294.098 84.5661V47.7802M294.098 84.5661H333.866M294.098 84.5661L333.866 47.7802M294.098 47.7802H333.866M294.098 47.7802L333.866 84.5661M333.866 84.5661V47.7802M333.866 84.5661H371.646M333.866 47.7802L371.646 84.5661M371.646 84.5661V165.76C371.646 165.76 376.286 167.748 376.286 172.057C376.286 176.365 374.694 178.155 371.646 178.353C368.438 178.562 366.344 176.365 366.344 172.057M416.717 329.142H322.267V202.214H540V329.142H446.544M416.717 329.142L410.089 346.707H451.846L446.544 329.142M416.717 329.142H446.544M326.907 207.848H535.692V318.869C466.097 319.311 326.907 319.929 326.907 318.869M326.907 207.848C326.907 244.413 326.907 317.808 326.907 318.869M326.907 207.848V318.869" stroke="black"/>
<path fill-rule="evenodd" clip-rule="evenodd" d="M338.8 191.821L348.657 241.559L417.249 227.965L407.392 178.227L401.541 179.387L344.326 190.726L338.8 191.821ZM341.266 194.035L405.632 181.279L414.458 225.815L406.981 227.297L391.702 230.325L357.569 237.09L350.092 238.571L341.266 194.035Z" fill="white"/>
<path d="M383.661 220.432L391.702 230.325L406.981 227.297L388.888 204.193L383.661 220.432Z" fill="white"/>
<path d="M367.966 200.906L357.569 237.09L391.702 230.325L383.661 220.432L367.966 200.906Z" fill="white"/>
<path d="M357.569 237.09L350.092 238.571L341.266 194.035L405.632 181.279L414.458 225.815L406.981 227.297M357.569 237.09L367.966 200.906L383.661 220.432M357.569 237.09L391.702 230.325M391.702 230.325L383.661 220.432M391.702 230.325L406.981 227.297M383.661 220.432L388.888 204.193L406.981 227.297M344.326 190.726L338.8 191.821L348.657 241.559L417.249 227.965L407.392 178.227L401.541 179.387M344.326 190.726L371.97 178.49L401.541 179.387M344.326 190.726L401.541 179.387" stroke="black"/>
<circle cx="398.337" cy="190.496" r="2.81405" transform="rotate(-11.2097 398.337 190.496)" fill="white" stroke="black"/>
<circle cx="371.647" cy="160.127" r="2.98264" fill="black"/>
</svg>
