<svg width="653" height="384" viewBox="0 0 653 384" fill="none" xmlns="http://www.w3.org/2000/svg">
<path d="M98.499 124.5C65.7705 144.123 32.9149 117.76 10.9998 149C-10.4323 179.552 27.4681 202.842 24.0007 240C21.0866 271.229 -11.1227 289.097 4.99982 316C20.7134 342.221 54.3897 314.988 82.4998 327C112.985 340.027 116.16 371.766 148 381C191.667 393.665 214.211 351.516 259.5 347.5C315.489 342.536 347.577 386.868 401.5 371C433.272 361.651 440.418 349.085 473.499 347.5C509.456 345.778 519.031 369.536 555 371C593.915 372.585 627.515 362.049 644.5 327C663.942 286.88 643.877 245.497 618.999 208.5C605.344 188.194 589.757 191.651 580.5 169C566.363 134.411 604.969 106.24 580.5 78.0001C556.333 50.109 521.898 86.5614 486 78.0001C432.952 65.3487 424.009 -0.702677 369.5 1.00011C321.794 2.49038 313.447 60.817 266 66.0001C222.473 70.7551 199.583 16.0624 159 32.5001C115.189 50.2451 139.039 100.193 98.499 124.5Z" fill="#E8DBCE"/>
<mask id="path-2-inside-1_200_112" fill="white">
<path fill-rule="evenodd" clip-rule="evenodd" d="M216.891 208.223C217.131 205.209 218.41 202.331 220.727 200.172C223.045 198.013 226.005 196.941 229.029 196.915C228.789 199.929 227.51 202.807 225.193 204.966C222.876 207.125 219.915 208.197 216.891 208.223Z"/>
</mask>
<path d="M216.891 208.223L215.895 208.144L215.808 209.232L216.9 209.223L216.891 208.223ZM229.029 196.915L230.026 196.994L230.112 195.906L229.02 195.915L229.029 196.915ZM217.888 208.302C218.109 205.519 219.287 202.881 221.409 200.904L220.046 199.441C217.533 201.782 216.152 204.898 215.895 208.144L217.888 208.302ZM221.409 200.904C223.531 198.927 226.246 197.939 229.037 197.915L229.02 195.915C225.765 195.943 222.559 197.099 220.046 199.441L221.409 200.904ZM228.032 196.836C227.811 199.618 226.633 202.257 224.511 204.234L225.875 205.697C228.387 203.356 229.768 200.24 230.026 196.994L228.032 196.836ZM224.511 204.234C222.39 206.211 219.674 207.199 216.883 207.223L216.9 209.223C220.155 209.195 223.362 208.038 225.875 205.697L224.511 204.234Z" fill="black" mask="url(#path-2-inside-1_200_112)"/>
<mask id="path-4-inside-2_200_112" fill="white">
<path fill-rule="evenodd" clip-rule="evenodd" d="M178.22 191.88C175.218 191.523 172.392 190.131 170.326 187.73C168.26 185.33 167.305 182.329 167.399 179.307C170.401 179.665 173.227 181.056 175.293 183.457C177.359 185.858 178.314 188.859 178.22 191.88Z"/>
</mask>
<path d="M178.22 191.88L178.102 192.873L179.186 193.003L179.22 191.911L178.22 191.88ZM167.399 179.307L167.517 178.314L166.433 178.185L166.399 179.276L167.399 179.307ZM178.338 190.888C175.567 190.557 172.976 189.276 171.084 187.078L169.568 188.382C171.809 190.986 174.869 192.488 178.102 192.873L178.338 190.888ZM171.084 187.078C169.193 184.88 168.312 182.128 168.398 179.338L166.399 179.276C166.299 182.53 167.328 185.779 169.568 188.382L171.084 187.078ZM167.281 180.3C170.052 180.63 172.643 181.911 174.535 184.109L176.051 182.805C173.81 180.201 170.75 178.699 167.517 178.314L167.281 180.3ZM174.535 184.109C176.426 186.307 177.307 189.06 177.221 191.85L179.22 191.911C179.32 188.657 178.291 185.408 176.051 182.805L174.535 184.109Z" fill="black" mask="url(#path-4-inside-2_200_112)"/>
<mask id="path-6-inside-3_200_112" fill="white">
<path fill-rule="evenodd" clip-rule="evenodd" d="M185.697 194.829C187.867 192.724 189.27 189.905 189.457 186.743C189.644 183.582 188.584 180.617 186.678 178.271C184.508 180.376 183.106 183.195 182.918 186.356C182.731 189.517 183.791 192.482 185.697 194.829Z"/>
</mask>
<path d="M185.697 194.829L184.921 195.459L185.61 196.307L186.393 195.546L185.697 194.829ZM186.678 178.271L187.454 177.64L186.766 176.793L185.982 177.553L186.678 178.271ZM188.459 186.684C188.287 189.579 187.004 192.168 185.001 194.111L186.393 195.546C188.73 193.28 190.252 190.23 190.455 186.802L188.459 186.684ZM185.902 178.901C187.662 181.067 188.63 183.79 188.459 186.684L190.455 186.802C190.658 183.374 189.507 180.167 187.454 177.64L185.902 178.901ZM183.917 186.415C184.088 183.521 185.371 180.932 187.374 178.989L185.982 177.553C183.645 179.82 182.123 182.869 181.92 186.297L183.917 186.415ZM186.473 194.198C184.714 192.032 183.745 189.31 183.917 186.415L181.92 186.297C181.717 189.725 182.868 192.933 184.921 195.459L186.473 194.198Z" fill="black" mask="url(#path-6-inside-3_200_112)"/>
<mask id="path-8-inside-4_200_112" fill="white">
<path fill-rule="evenodd" clip-rule="evenodd" d="M191.401 206.289C194.09 204.907 196.253 202.618 197.352 199.648C198.452 196.678 198.301 193.533 197.16 190.733C194.471 192.115 192.308 194.404 191.209 197.374C190.109 200.344 190.26 203.489 191.401 206.289Z"/>
</mask>
<path d="M191.401 206.289L190.475 206.667L190.887 207.678L191.858 207.179L191.401 206.289ZM197.16 190.733L198.086 190.356L197.674 189.345L196.703 189.844L197.16 190.733ZM196.414 199.301C195.408 202.021 193.426 204.124 190.944 205.4L191.858 207.179C194.753 205.691 197.098 203.216 198.29 199.996L196.414 199.301ZM196.234 191.111C197.287 193.695 197.421 196.582 196.414 199.301L198.29 199.996C199.482 196.775 199.314 193.371 198.086 190.356L196.234 191.111ZM192.147 197.721C193.153 195.002 195.135 192.899 197.617 191.623L196.703 189.844C193.807 191.332 191.463 193.806 190.271 197.027L192.147 197.721ZM192.327 205.912C191.274 203.327 191.14 200.441 192.147 197.721L190.271 197.027C189.079 200.248 189.246 203.652 190.475 206.667L192.327 205.912Z" fill="black" mask="url(#path-8-inside-4_200_112)"/>
<mask id="path-10-inside-5_200_112" fill="white">
<path fill-rule="evenodd" clip-rule="evenodd" d="M179.568 203.328C176.722 204.35 173.572 204.369 170.65 203.145C167.729 201.921 165.533 199.663 164.266 196.919C167.112 195.896 170.262 195.877 173.184 197.101C176.105 198.325 178.3 200.583 179.568 203.328Z"/>
</mask>
<path d="M179.568 203.328L179.906 204.269L180.933 203.9L180.476 202.908L179.568 203.328ZM164.266 196.919L163.928 195.977L162.9 196.347L163.358 197.338L164.266 196.919ZM179.23 202.386C176.602 203.331 173.712 203.343 171.036 202.222L170.263 204.067C173.432 205.394 176.841 205.37 179.906 204.269L179.23 202.386ZM171.036 202.222C168.362 201.102 166.344 199.033 165.174 196.499L163.358 197.338C164.723 200.293 167.096 202.74 170.263 204.067L171.036 202.222ZM164.604 197.86C167.231 196.915 170.122 196.903 172.797 198.024L173.57 196.179C170.402 194.852 166.992 194.876 163.928 195.977L164.604 197.86ZM172.797 198.024C175.472 199.144 177.49 201.213 178.66 203.747L180.476 202.908C179.111 199.953 176.738 197.506 173.57 196.179L172.797 198.024Z" fill="black" mask="url(#path-10-inside-5_200_112)"/>
<mask id="path-12-inside-6_200_112" fill="white">
<path fill-rule="evenodd" clip-rule="evenodd" d="M185.734 219.119C185.236 216.137 183.713 213.381 181.218 211.43C178.723 209.48 175.682 208.667 172.668 208.902C173.167 211.884 174.69 214.64 177.185 216.591C179.679 218.541 182.721 219.354 185.734 219.119Z"/>
</mask>
<path d="M185.734 219.119L185.812 220.116L186.901 220.031L186.721 218.954L185.734 219.119ZM172.668 208.902L172.591 207.905L171.502 207.99L171.682 209.067L172.668 208.902ZM180.602 212.218C182.886 214.004 184.288 216.531 184.748 219.284L186.721 218.954C186.184 215.743 184.539 212.758 181.834 210.643L180.602 212.218ZM172.746 209.899C175.528 209.682 178.318 210.433 180.602 212.218L181.834 210.643C179.129 208.528 175.836 207.652 172.591 207.905L172.746 209.899ZM177.801 215.803C175.516 214.017 174.115 211.49 173.655 208.737L171.682 209.067C172.219 212.278 173.863 215.264 176.569 217.379L177.801 215.803ZM185.657 218.122C182.875 218.339 180.085 217.589 177.801 215.803L176.569 217.379C179.274 219.494 182.567 220.369 185.812 220.116L185.657 218.122Z" fill="black" mask="url(#path-12-inside-6_200_112)"/>
<mask id="path-14-inside-7_200_112" fill="white">
<path fill-rule="evenodd" clip-rule="evenodd" d="M188.13 227.839C187.503 226.002 186.197 224.446 184.356 223.602C182.703 222.845 180.898 222.788 179.243 223.308C179.87 225.146 181.176 226.701 183.018 227.545C184.67 228.303 186.475 228.359 188.13 227.839Z"/>
</mask>
<path d="M188.13 227.839L188.43 228.793L189.408 228.486L189.077 227.516L188.13 227.839ZM179.243 223.308L178.943 222.354L177.966 222.661L178.297 223.631L179.243 223.308ZM183.939 224.511C185.512 225.232 186.638 226.564 187.184 228.162L189.077 227.516C188.368 225.44 186.883 223.66 184.772 222.693L183.939 224.511ZM179.543 224.262C180.978 223.811 182.527 223.864 183.939 224.511L184.772 222.693C182.879 221.826 180.818 221.765 178.943 222.354L179.543 224.262ZM183.434 226.636C181.862 225.916 180.735 224.584 180.189 222.985L178.297 223.631C179.005 225.708 180.491 227.487 182.601 228.454L183.434 226.636ZM187.831 226.885C186.395 227.336 184.847 227.284 183.434 226.636L182.601 228.454C184.494 229.322 186.556 229.382 188.43 228.793L187.831 226.885Z" fill="black" mask="url(#path-14-inside-7_200_112)"/>
<mask id="path-16-inside-8_200_112" fill="white">
<path fill-rule="evenodd" clip-rule="evenodd" d="M211.683 210.091C213.834 208.178 215.19 205.667 215.327 202.867C215.458 200.18 214.447 197.65 212.64 195.583C210.489 197.496 209.133 200.007 208.996 202.807C208.865 205.494 209.876 208.024 211.683 210.091Z"/>
</mask>
<path d="M211.683 210.091L210.93 210.749L211.594 211.509L212.348 210.838L211.683 210.091ZM212.64 195.583L213.393 194.925L212.729 194.165L211.975 194.836L212.64 195.583ZM214.328 202.818C214.206 205.311 213 207.581 211.019 209.344L212.348 210.838C214.668 208.775 216.174 206.024 216.326 202.915L214.328 202.818ZM211.887 196.241C213.549 198.142 214.445 200.426 214.328 202.818L216.326 202.915C216.472 199.935 215.345 197.158 213.393 194.925L211.887 196.241ZM209.995 202.856C210.117 200.363 211.323 198.093 213.305 196.33L211.975 194.836C209.655 196.899 208.149 199.65 207.997 202.759L209.995 202.856ZM212.436 209.433C210.774 207.532 209.878 205.248 209.995 202.856L207.997 202.759C207.852 205.739 208.978 208.516 210.93 210.749L212.436 209.433Z" fill="black" mask="url(#path-16-inside-8_200_112)"/>
<mask id="path-18-inside-9_200_112" fill="white">
<path fill-rule="evenodd" clip-rule="evenodd" d="M206.022 218.954C207.578 216.531 208.208 213.748 207.585 211.013C206.988 208.39 205.332 206.226 203.034 204.721C201.477 207.144 200.847 209.927 201.47 212.662C202.067 215.285 203.724 217.449 206.022 218.954Z"/>
</mask>
<path d="M206.022 218.954L205.474 219.79L206.318 220.343L206.863 219.494L206.022 218.954ZM203.034 204.721L203.581 203.885L202.738 203.332L202.192 204.181L203.034 204.721ZM206.61 211.235C207.165 213.669 206.614 216.181 205.18 218.413L206.863 219.494C208.542 216.881 209.252 213.826 208.56 210.791L206.61 211.235ZM202.486 205.558C204.599 206.941 206.078 208.899 206.61 211.235L208.56 210.791C207.897 207.881 206.064 205.51 203.581 203.885L202.486 205.558ZM202.445 212.44C201.891 210.006 202.441 207.494 203.875 205.262L202.192 204.181C200.514 206.794 199.804 209.849 200.495 212.884L202.445 212.44ZM206.569 218.117C204.456 216.734 202.977 214.776 202.445 212.44L200.495 212.884C201.158 215.794 202.991 218.165 205.474 219.79L206.569 218.117Z" fill="black" mask="url(#path-18-inside-9_200_112)"/>
<mask id="path-20-inside-10_200_112" fill="white">
<path fill-rule="evenodd" clip-rule="evenodd" d="M201.83 226.478C202.877 224.041 203.012 221.457 201.999 219.154C201.026 216.943 199.151 215.339 196.788 214.439C195.741 216.877 195.606 219.46 196.619 221.764C197.591 223.974 199.467 225.579 201.83 226.478Z"/>
</mask>
<path d="M201.83 226.478L201.474 227.412L202.37 227.754L202.748 226.873L201.83 226.478ZM196.788 214.439L197.144 213.505L196.248 213.164L195.87 214.044L196.788 214.439ZM201.083 219.556C201.965 221.562 201.87 223.852 200.911 226.083L202.748 226.873C203.885 224.229 204.059 221.353 202.914 218.751L201.083 219.556ZM196.433 215.374C198.589 216.195 200.237 217.632 201.083 219.556L202.914 218.751C201.816 216.255 199.712 214.482 197.144 213.505L196.433 215.374ZM197.535 221.361C196.653 219.355 196.748 217.065 197.707 214.834L195.87 214.044C194.733 216.688 194.559 219.564 195.704 222.166L197.535 221.361ZM202.185 225.543C200.029 224.722 198.381 223.286 197.535 221.361L195.704 222.166C196.802 224.662 198.906 226.435 201.474 227.412L202.185 225.543Z" fill="black" mask="url(#path-20-inside-10_200_112)"/>
<mask id="path-22-inside-11_200_112" fill="white">
<path fill-rule="evenodd" clip-rule="evenodd" d="M214.123 216.347C216.658 217.711 219.481 218.125 222.159 217.294C224.728 216.497 226.758 214.68 228.081 212.274C225.546 210.909 222.723 210.495 220.045 211.326C217.476 212.124 215.446 213.941 214.123 216.347Z"/>
</mask>
<path d="M214.123 216.347L213.247 215.865L212.761 216.749L213.649 217.227L214.123 216.347ZM228.081 212.274L228.957 212.755L229.443 211.871L228.555 211.393L228.081 212.274ZM221.863 216.339C219.479 217.079 216.932 216.724 214.597 215.466L213.649 217.227C216.383 218.699 219.483 219.172 222.456 218.249L221.863 216.339ZM227.205 211.792C225.988 214.004 224.15 215.629 221.863 216.339L222.456 218.249C225.306 217.364 227.528 215.355 228.957 212.755L227.205 211.792ZM220.341 212.281C222.725 211.541 225.272 211.897 227.607 213.154L228.555 211.393C225.821 209.921 222.721 209.449 219.749 210.371L220.341 212.281ZM215 216.828C216.216 214.616 218.054 212.991 220.341 212.281L219.749 210.371C216.899 211.256 214.676 213.265 213.247 215.865L215 216.828Z" fill="black" mask="url(#path-22-inside-11_200_112)"/>
<mask id="path-24-inside-12_200_112" fill="white">
<path fill-rule="evenodd" clip-rule="evenodd" d="M209.202 226.577C211.933 227.634 214.804 227.683 217.339 226.483C219.77 225.333 221.508 223.214 222.453 220.589C219.722 219.533 216.851 219.483 214.317 220.683C211.885 221.833 210.147 223.952 209.202 226.577Z"/>
</mask>
<path d="M209.202 226.577L208.261 226.239L207.931 227.158L208.842 227.51L209.202 226.577ZM222.453 220.589L223.394 220.927L223.724 220.009L222.814 219.656L222.453 220.589ZM216.911 225.58C214.665 226.643 212.083 226.62 209.563 225.645L208.842 227.51C211.782 228.648 214.943 228.724 217.766 227.387L216.911 225.58ZM221.512 220.25C220.642 222.668 219.066 224.56 216.911 225.58L217.766 227.387C220.474 226.106 222.375 223.76 223.394 220.927L221.512 220.25ZM214.744 221.587C216.99 220.524 219.572 220.547 222.092 221.522L222.814 219.656C219.873 218.519 216.712 218.443 213.889 219.779L214.744 221.587ZM210.143 226.916C211.013 224.498 212.59 222.607 214.744 221.587L213.889 219.779C211.181 221.06 209.281 223.406 208.261 226.239L210.143 226.916Z" fill="black" mask="url(#path-24-inside-12_200_112)"/>
<path d="M217.145 207.942C212.506 211.927 203.683 222.468 205.5 232.753" stroke="black"/>
<path d="M211.881 209.489C211.533 210.041 211.045 211.615 211.873 213.504" stroke="black"/>
<path d="M209.758 216.263C210.851 216.597 213.358 217.042 214.638 216.142" stroke="black"/>
<path d="M206.016 218.526C205.81 218.965 205.651 220.444 206.666 222.85" stroke="black"/>
<path d="M205.356 226.788C206.445 226.942 208.834 227.028 209.68 226.139" stroke="black"/>
<path d="M205.512 228.738C204.418 228.403 202.071 227.391 201.43 226.018" stroke="black"/>
<path d="M192.064 246.045C192.481 240.966 186.708 233.083 186.708 233.083H213.486C213.486 233.083 208.325 240.931 208.633 246.045C209.226 255.907 220.313 258.553 220.348 268.433C220.38 277.492 210.641 289.474 210.641 289.474H190.558C190.558 289.474 180.712 277.52 180.683 268.433C180.652 258.614 191.26 255.831 192.064 246.045Z" fill="white" stroke="black"/>
<path d="M193.586 233.084C192.073 222.172 186.8 198.58 177.816 191.508" stroke="black"/>
<path d="M185.703 194.375C185.544 195.967 184.986 199.249 184.03 199.631" stroke="black"/>
<path d="M179.25 203.105C180.939 204.338 184.794 206.541 186.705 205.492" stroke="black"/>
<path d="M188.33 210.861C189.206 210.224 191.101 208.329 191.675 205.844" stroke="black"/>
<path d="M185.463 218.986C187.852 220.181 188.091 220.181 190.959 220.181" stroke="black"/>
<path d="M193.039 227.989C191.923 228.422 189.288 228.964 187.679 227.666" stroke="black"/>
<path d="M253.14 218.545C252.319 229.382 244.175 253.517 218.168 263.368" stroke="black"/>
<path d="M419.626 219.531C420.775 226.262 429.182 241.105 453.613 246.622" stroke="black"/>
<path d="M279.76 144.846C263.998 26.6312 378.272 26.1384 362.018 144.846" stroke="black"/>
<path d="M259.545 138.75V320.013H419.135V138.75H259.545Z" fill="white"/>
<path d="M259.545 320.013V138.75L266.934 125.451L246.739 118.063V307.207L253.635 311.64L259.545 320.013Z" fill="#EBEBEB"/>
<path d="M259.545 138.75H419.135L404.359 133.209L383.671 125.451L404.359 118.063H246.739L266.934 125.451L259.545 138.75Z" fill="#D3D3D3"/>
<path d="M404.359 118.063L383.671 125.451L404.359 133.209V118.063Z" fill="#EBEBEB"/>
<path d="M259.545 138.75V320.013M259.545 138.75H419.135M259.545 138.75L266.934 125.451L246.739 118.063M259.545 320.013H419.135V138.75M259.545 320.013L253.635 311.64L246.739 307.207V118.063M419.135 138.75L404.359 133.209M246.739 118.063H404.359M404.359 118.063L383.671 125.451L404.359 133.209M404.359 118.063V133.209" stroke="black"/>
<path d="M296.488 165.349C280.726 47.1341 395 46.6414 378.746 165.349" stroke="black"/>
<path d="M322.594 320.013V354" stroke="black"/>
<path d="M352.147 320.013V354" stroke="black"/>
<circle cx="309.787" cy="223.471" r="6.89587" fill="black"/>
<circle cx="364.954" cy="223.471" r="6.89587" fill="black"/>
<path d="M311.756 263.861C311.756 263.861 321.56 256.056 329.058 254.245C335.63 252.658 339.807 252.579 346.36 254.245C353.611 256.09 362.983 263.861 362.983 263.861" stroke="black"/>
<path d="M426.029 212.599C426.029 212.599 426.029 183.081 453.607 183.081C480.211 183.081 480.211 212.599 480.211 212.599H468.531C468.531 212.599 464.313 222.33 453.607 222.33V275.851C466.585 275.851 466.585 289.474 466.585 289.474H439.656C439.656 289.474 440.629 275.851 453.607 275.851V222.33C442.9 222.33 437.385 212.599 437.385 212.599H426.029Z" fill="#FFFEFE"/>
<path d="M437.385 212.599H426.029C426.029 212.599 426.029 183.081 453.607 183.081C480.211 183.081 480.211 212.599 480.211 212.599H468.531M437.385 212.599C437.385 212.599 442.9 222.33 453.607 222.33M437.385 212.599H468.531M453.607 222.33C464.313 222.33 468.531 212.599 468.531 212.599M453.607 222.33C453.607 222.33 453.607 254.95 453.607 275.851M453.607 275.851C440.629 275.851 439.656 289.474 439.656 289.474H466.585C466.585 289.474 466.585 275.851 453.607 275.851Z" stroke="black"/>
</svg>
