<svg width="272" height="366" viewBox="0 0 272 366" fill="none" xmlns="http://www.w3.org/2000/svg">
<path d="M32.5 110.5V96M32.5 110.5V237V363.5H84.125M32.5 110.5H135.75H239M239 110.5V96M239 110.5V237V363.5H187.375M32.5 96H135.75M32.5 96L58.3125 76.875M32.5 96L11 112L3 101L135.75 3M239 96H135.75M239 96L213.188 76.875M239 96L260.5 112L268.5 101L217 62.9812M135.75 96V19.5M135.75 96L213.188 76.875M135.75 96L161.562 38.625M135.75 96L187.375 57.75M135.75 96L84.125 57.75M135.75 96L109.938 38.625M135.75 96L58.3125 76.875M135.75 19.5L161.562 38.625M135.75 19.5L109.938 38.625M135.75 19.5V3M187.375 57.75L213.188 76.875M187.375 57.75L161.562 38.625M84.125 57.75L109.938 38.625M84.125 57.75L58.3125 76.875M135.75 3L161.562 22.0556L205.75 54.6761M84.125 363.5H135.75H187.375M84.125 363.5V343.5H97.0312M187.375 363.5V343.5H174.469M97.0312 343.5H109.938H135.75H161.562M97.0312 343.5H161.562M97.0312 343.5V326H106.711M161.562 343.5H174.469M174.469 343.5V326H164.789M135.75 326H112M135.75 326H158.5M135.75 326V243M112 326H106.711M112 326V262C112 262 113 243 135.75 243M106.711 326H158.5M106.711 326V262C106.711 262 106.711 237 135.75 237C164.789 237 164.789 262 164.789 262V326M158.5 326H164.789M158.5 326V262C158.5 262 158.5 243 135.75 243M205.75 320.5H193.875H187.938M205.75 320.5H217.625M205.75 320.5V299.625M187.938 320.5H182V330H229.5V320.5H223.562M187.938 320.5H217.625M187.938 320.5L187.737 299.625M217.625 320.5H223.562M223.562 320.5V299.625M65.75 320.5H78.125H84.3125M65.75 320.5H53.375M65.75 320.5V299.625M84.3125 320.5H90.5V330H41V320.5H47.1875M84.3125 320.5H53.375M84.3125 320.5L84.2456 299.625M53.375 320.5H47.1875M47.1875 320.5V299.625M65.75 242V257.875M65.75 242C79.529 242 82.9765 250.775 83.8383 257.875M65.75 242C51.971 242 48.4202 250.775 47.5052 257.875M205.75 242V257.875M205.75 242C219.39 242 222.595 250.775 223.341 257.875M205.75 242C192.11 242 188.595 250.775 187.689 257.875M65.75 278.75H84.1787M65.75 278.75H47.1875M65.75 278.75V257.875M65.75 278.75V299.625M84.1787 278.75L84.125 262C84.125 262 84.1374 260.34 83.8383 257.875M84.1787 278.75L84.2456 299.625M47.1875 278.75V262C47.1875 262 47.1875 260.34 47.5052 257.875M47.1875 278.75V299.625M65.75 257.875H83.8383M65.75 257.875H47.5052M65.75 299.625H84.2456M65.75 299.625H47.1875M205.75 278.75H223.562M205.75 278.75H187.536M205.75 278.75V257.875M205.75 278.75V299.625M223.562 278.75V262C223.562 262 223.6 260.34 223.341 257.875M223.562 278.75V299.625M187.536 278.75L187.375 262C187.375 262 187.375 260.34 187.689 257.875M187.536 278.75L187.737 299.625M205.75 257.875H223.341M205.75 257.875H187.689M205.75 299.625H223.562M205.75 299.625H187.737M65.75 196.5H53.375H47.1875M65.75 196.5H78.125H84.3125M65.75 196.5V180.375M47.1875 196.5H41V205H90.5V196.5H84.3125M47.1875 196.5V180.375M84.3125 196.5V180.375M135.75 196.5H148.125H154.312M135.75 196.5H122.875M135.75 196.5V180.375M154.312 196.5H160.5V205H110V196.5H116.438M154.312 196.5H122.875M154.312 196.5V180.375M122.875 196.5H116.438M116.438 196.5V180.375M205.75 196.5H193.875H187.938M205.75 196.5H217.625M205.75 196.5V180.375M187.938 196.5H182V205H229.5V196.5H223.562M187.938 196.5H217.625M187.938 196.5L187.851 180.375M217.625 196.5H223.562M223.562 196.5V180.375M65.75 132V148.125M65.75 132C80.7267 132 83.6198 143.717 84.1787 148.244M65.75 132C50.7733 132 47.8802 143.717 47.3213 148.244M135.75 132V148.125M135.75 132C150.597 132 153.569 143.515 154.164 148.125M135.75 132C120.903 132 117.451 143.515 116.665 148.125M205.75 132V148.125M205.75 132C219.997 132 222.849 143.515 223.42 148.125M205.75 132C191.503 132 188.493 143.515 187.858 148.125M205.75 164.25H223.562M205.75 164.25H187.765M205.75 164.25V148.125M205.75 164.25V180.375M223.562 164.25V150C223.562 150 223.563 149.279 223.42 148.125M223.562 164.25V180.375M187.765 164.25L187.689 150C187.689 150 187.699 149.279 187.858 148.125M187.765 164.25L187.851 180.375M205.75 148.125H223.42M205.75 148.125H187.858M205.75 180.375H223.562M205.75 180.375H187.851M135.75 164.25H154.312M135.75 164.25V148.125M135.75 164.25H116.438M135.75 164.25V180.375M154.312 164.25V150C154.312 150 154.313 149.279 154.164 148.125M154.312 164.25V180.375M135.75 148.125H154.164M135.75 148.125H116.665M116.665 148.125C116.468 149.279 116.438 150 116.438 150V164.25M116.438 164.25V180.375M135.75 180.375H154.312M135.75 180.375H116.438M65.75 164.25H84.3125M65.75 164.25V148.125M65.75 164.25H47.1875M65.75 164.25V180.375M84.3125 164.25V150C84.3125 150 84.3125 149.328 84.1787 148.244M84.3125 164.25V180.375M65.75 148.125L84.1787 148.244M65.75 148.125L47.3213 148.244M47.3213 148.244C47.1875 149.328 47.1875 150 47.1875 150V164.25M47.1875 164.25V180.375M65.75 180.375H84.3125M65.75 180.375H47.1875M217 62.9812V27.5M217 62.9812L205.75 54.6761M217 27.5H205.75M217 27.5H219V18H204V27.5H205.75M205.75 27.5V54.6761" stroke="black" stroke-width="4"/>
<circle cx="131.5" cy="289.5" r="2.5" fill="black"/>
<circle cx="140.5" cy="289.5" r="2.5" fill="black"/>
</svg>
