<svg width="696" height="384" viewBox="0 0 696 384" fill="none" xmlns="http://www.w3.org/2000/svg">
<path d="M119.5 124.5C86.7715 144.123 53.9159 117.76 32.0008 149C10.5687 179.552 48.469 202.842 45.0017 240C42.0876 271.229 9.87833 289.097 26.0008 316C41.7144 342.221 75.3906 314.988 103.501 327C133.986 340.027 137.161 371.766 169.001 381C212.668 393.665 235.212 351.516 280.501 347.5C336.49 342.536 368.578 386.868 422.501 371C454.273 361.651 461.419 349.085 494.5 347.5C530.457 345.778 540.032 369.536 576.001 371C614.916 372.585 648.516 362.049 665.501 327C684.943 286.88 664.878 245.497 640 208.5C626.345 188.194 610.758 191.651 601.501 169C587.364 134.411 625.97 106.24 601.501 78.0001C577.334 50.109 542.899 86.5614 507.001 78.0001C453.953 65.3487 445.01 -0.702677 390.501 1.00011C342.795 2.49038 334.448 60.817 287.001 66.0001C243.474 70.7551 220.584 16.0624 180.001 32.5001C136.19 50.2451 160.04 100.193 119.5 124.5Z" fill="#E8DBCE"/>
<path d="M311.52 143.188C295.52 23.1877 411.519 22.6875 395.02 143.188" stroke="black"/>
<path d="M291 137V321H453V137H291Z" fill="white"/>
<path d="M291 321V137L298.5 123.5L278 116V308L285 312.5L291 321Z" fill="#EBEBEB"/>
<path d="M291 137H453L438 131.375L417 123.5L438 116H278L298.5 123.5L291 137Z" fill="#D3D3D3"/>
<path d="M438 116L417 123.5L438 131.375V116Z" fill="#EBEBEB"/>
<path d="M291 137V321M291 137H453M291 137L298.5 123.5L278 116M291 321H453V137M291 321L285 312.5L278 308V116M453 137L438 131.375M278 116H438M438 116L417 123.5L438 131.375M438 116V131.375" stroke="black"/>
<path d="M328.5 164C312.5 44 428.5 43.4998 412 164" stroke="black"/>
<path d="M355 321V355.5" stroke="black"/>
<path d="M385 321V355.5" stroke="black"/>
<circle cx="342" cy="223" r="7" fill="black"/>
<circle cx="398" cy="223" r="7" fill="black"/>
<path d="M370.755 243.002C361.365 242.868 357.791 251.579 358.009 258.897C358.113 262.368 359.008 266.109 360.967 269C362.992 271.987 366.153 274.065 370.755 273.998C379.701 273.869 382.785 265.871 382.99 258.897C383.203 251.66 380.04 243.133 370.755 243.002Z" stroke="black"/>
<path d="M349 202.556C349 202.556 346.5 199.556 339.5 200.056C332.5 200.556 327 206.556 327 206.556" stroke="black"/>
<path d="M391 202.556C391 202.556 393.5 199.556 400.5 200.056C407.5 200.556 413 206.556 413 206.556" stroke="black"/>
<path d="M222.514 201.192L220.345 195.168L218.207 193.947L215.932 187.63L219.84 186.222L214.232 170.65C214.021 170.063 214.42 168.425 215.499 168.037C216.578 167.648 217.876 168.508 218.141 169.243L223.748 184.815L233.819 181.188L228.212 165.616C228 165.028 228.399 163.391 229.478 163.003C230.557 162.614 231.855 163.474 232.12 164.209L237.728 179.781L241.335 178.482L243.61 184.799L242.742 187.103L244.911 193.126C244.911 193.126 239.651 196.086 240.398 201.663C240.57 202.946 240.677 203.61 240.677 203.61L236.568 205.09L232.832 206.435C232.832 206.435 232.49 205.856 231.806 204.757C228.849 200.004 222.514 201.192 222.514 201.192Z" fill="white"/>
<path d="M236.568 205.09L240.677 203.61C240.677 203.61 240.57 202.946 240.398 201.663C239.651 196.086 244.911 193.126 244.911 193.126L242.742 187.103L243.61 184.799L241.335 178.482L237.728 179.781M236.568 205.09L232.832 206.435C232.832 206.435 232.49 205.856 231.806 204.757C228.849 200.004 222.514 201.192 222.514 201.192L220.345 195.168L218.207 193.947L215.932 187.63L219.84 186.222M236.568 205.09C236.568 205.09 248.965 241.121 244.911 264C239.891 292.325 229.03 309.981 205.137 326C174.124 346.791 111.5 331 111.5 331M219.84 186.222L223.748 184.815M219.84 186.222C219.84 186.222 214.444 171.238 214.232 170.65C214.021 170.063 214.42 168.425 215.499 168.037C216.578 167.648 217.876 168.508 218.141 169.243C218.405 169.977 223.748 184.815 223.748 184.815M223.748 184.815L233.819 181.188M237.728 179.781L233.819 181.188M237.728 179.781C237.728 179.781 232.384 164.943 232.12 164.209C231.855 163.474 230.557 162.614 229.478 163.003C228.399 163.391 228 165.028 228.212 165.616C228.423 166.204 233.819 181.188 233.819 181.188" stroke="black"/>
<path d="M488.94 175.762L486.47 181.847C486.47 181.847 491.942 185.208 490.911 190.849C490.673 192.154 490.534 192.829 490.534 192.829L494.197 194.316L498.226 195.951C498.226 195.951 498.595 195.37 499.335 194.269C502.552 189.485 508.428 190.76 508.428 190.76L510.899 184.675L513.095 183.492L515.686 177.11L512.149 175.674L508.317 174.119L498.443 170.111L494.611 168.555L490.779 167L488.189 173.382L488.94 175.762Z" fill="white"/>
<path d="M494.197 194.316L498.226 195.951C498.226 195.951 498.595 195.37 499.335 194.269C502.552 189.485 508.428 190.76 508.428 190.76L510.899 184.675L513.095 183.492L515.686 177.11L512.149 175.674L508.317 174.119L498.443 170.111L494.611 168.555L490.779 167L488.189 173.382L488.94 175.762L486.47 181.847C486.47 181.847 491.942 185.208 490.911 190.849C490.673 192.154 490.534 192.829 490.534 192.829L494.197 194.316ZM494.197 194.316C494.197 194.316 491.423 246.727 508.428 272.848C523.913 296.632 539.147 310.472 567.014 315.848C594.263 321.104 670.5 311.5 670.5 311.5" stroke="black"/>
<path d="M286 248.5C277.167 249.667 243.5 245.5 239 212.5" stroke="black"/>
<path d="M453.5 249C462.167 249 482.5 243.8 494.5 223" stroke="black"/>
<path d="M31.4225 138V135.312L43.1985 133.392V113.424H0.0625V110.736L54.3345 35.6H57.2785V107.408H69.0545V113.424H57.2785V133.392L69.0545 135.312V138H31.4225ZM6.3345 107.408H43.1985V56.336L6.3345 107.408ZM119.482 140.56C112.058 140.56 105.572 138.555 100.026 134.544C94.4788 130.533 90.1695 124.517 87.0975 116.496C84.0255 108.389 82.4895 98.4907 82.4895 86.8C82.4895 75.1093 84.0255 65.2533 87.0975 57.232C90.1695 49.1253 94.4788 43.0667 100.026 39.056C105.572 35.0453 112.058 33.04 119.482 33.04C126.906 33.04 133.391 35.0453 138.938 39.056C144.484 43.0667 148.794 49.1253 151.866 57.232C154.938 65.2533 156.474 75.1093 156.474 86.8C156.474 98.4907 154.938 108.389 151.866 116.496C148.794 124.517 144.484 130.533 138.938 134.544C133.391 138.555 126.906 140.56 119.482 140.56ZM119.482 137.616C125.882 137.616 130.916 134.501 134.586 128.272C138.255 122.043 140.09 112.315 140.09 99.088V74.384C140.09 61.2427 138.255 51.5573 134.586 45.328C130.916 39.0987 125.882 35.984 119.482 35.984C113.082 35.984 108.047 39.0987 104.378 45.328C100.708 51.5573 98.8735 61.2427 98.8735 74.384V99.088C98.8735 112.229 100.708 121.957 104.378 128.272C108.047 134.501 113.082 137.616 119.482 137.616ZM195.423 138V135.312L207.199 133.392V113.424H164.062V110.736L218.335 35.6H221.279V107.408H233.055V113.424H221.279V133.392L233.055 135.312V138H195.423ZM170.335 107.408H207.199V56.336L170.335 107.408Z" fill="#EACEB2"/>
<path d="M31.4225 138H30.4225V139H31.4225V138ZM31.4225 135.312L31.2616 134.325L30.4225 134.462V135.312H31.4225ZM43.1985 133.392L43.3594 134.379L44.1985 134.242V133.392H43.1985ZM43.1985 113.424H44.1985V112.424H43.1985V113.424ZM0.0625 113.424H-0.9375V114.424H0.0625V113.424ZM0.0625 110.736L-0.748143 110.15L-0.9375 110.413V110.736H0.0625ZM54.3345 35.6V34.6H53.8232L53.5239 35.0145L54.3345 35.6ZM57.2785 35.6H58.2785V34.6H57.2785V35.6ZM57.2785 107.408H56.2785V108.408H57.2785V107.408ZM69.0545 107.408H70.0545V106.408H69.0545V107.408ZM69.0545 113.424V114.424H70.0545V113.424H69.0545ZM57.2785 113.424V112.424H56.2785V113.424H57.2785ZM57.2785 133.392H56.2785V134.242L57.1176 134.379L57.2785 133.392ZM69.0545 135.312H70.0545V134.462L69.2154 134.325L69.0545 135.312ZM69.0545 138V139H70.0545V138H69.0545ZM6.3345 107.408L5.52366 106.823L4.37941 108.408H6.3345V107.408ZM43.1985 107.408V108.408H44.1985V107.408H43.1985ZM43.1985 56.336H44.1985V53.242L42.3877 55.7507L43.1985 56.336ZM32.4225 138V135.312H30.4225V138H32.4225ZM31.5834 136.299L43.3594 134.379L43.0376 132.405L31.2616 134.325L31.5834 136.299ZM44.1985 133.392V113.424H42.1985V133.392H44.1985ZM43.1985 112.424H0.0625V114.424H43.1985V112.424ZM1.0625 113.424V110.736H-0.9375V113.424H1.0625ZM0.873143 111.322L55.1451 36.1855L53.5239 35.0145L-0.748143 110.15L0.873143 111.322ZM54.3345 36.6H57.2785V34.6H54.3345V36.6ZM56.2785 35.6V107.408H58.2785V35.6H56.2785ZM57.2785 108.408H69.0545V106.408H57.2785V108.408ZM68.0545 107.408V113.424H70.0545V107.408H68.0545ZM69.0545 112.424H57.2785V114.424H69.0545V112.424ZM56.2785 113.424V133.392H58.2785V113.424H56.2785ZM57.1176 134.379L68.8936 136.299L69.2154 134.325L57.4394 132.405L57.1176 134.379ZM68.0545 135.312V138H70.0545V135.312H68.0545ZM69.0545 137H31.4225V139H69.0545V137ZM6.3345 108.408H43.1985V106.408H6.3345V108.408ZM44.1985 107.408V56.336H42.1985V107.408H44.1985ZM42.3877 55.7507L5.52366 106.823L7.14534 107.993L44.0093 56.9213L42.3877 55.7507ZM100.025 134.544L100.611 133.734L100.025 134.544ZM87.0975 116.496L86.1624 116.85L86.1636 116.854L87.0975 116.496ZM87.0975 57.232L88.0314 57.5896L88.0326 57.5864L87.0975 57.232ZM100.025 39.056L99.4396 38.2456L100.025 39.056ZM138.938 39.056L139.523 38.2456L138.938 39.056ZM151.866 57.232L150.93 57.5864L150.932 57.5896L151.866 57.232ZM151.866 116.496L152.799 116.854L152.801 116.85L151.866 116.496ZM138.938 134.544L138.352 133.734L138.938 134.544ZM134.586 128.272L135.447 128.78L134.586 128.272ZM134.586 45.328L135.447 44.8205L134.586 45.328ZM104.378 128.272L103.513 128.774L103.516 128.78L104.378 128.272ZM119.482 139.56C112.249 139.56 105.973 137.61 100.611 133.734L99.4396 135.354C105.171 139.499 111.866 141.56 119.482 141.56V139.56ZM100.611 133.734C95.2581 129.863 91.0515 124.024 88.0314 116.138L86.1636 116.854C89.2875 125.01 93.6996 131.204 99.4396 135.354L100.611 133.734ZM88.0326 116.142C85.0156 108.18 83.4895 98.4091 83.4895 86.8H81.4895C81.4895 98.5722 83.0354 108.599 86.1624 116.85L88.0326 116.142ZM83.4895 86.8C83.4895 75.1903 85.0157 65.4637 88.0314 57.5896L86.1636 56.8743C83.0353 65.0429 81.4895 75.0283 81.4895 86.8H83.4895ZM88.0326 57.5864C91.0537 49.614 95.2607 43.7354 100.611 39.8663L99.4396 38.2456C93.697 42.3979 89.2853 48.6367 86.1624 56.8776L88.0326 57.5864ZM100.611 39.8663C105.973 35.9895 112.249 34.04 119.482 34.04V32.04C111.866 32.04 105.171 34.1011 99.4396 38.2456L100.611 39.8663ZM119.482 34.04C126.714 34.04 132.99 35.9895 138.352 39.8663L139.523 38.2456C133.792 34.1011 127.097 32.04 119.482 32.04V34.04ZM138.352 39.8663C143.702 43.7354 147.909 49.614 150.93 57.5864L152.801 56.8776C149.678 48.6367 145.266 42.3979 139.523 38.2456L138.352 39.8663ZM150.932 57.5896C153.947 65.4637 155.474 75.1903 155.474 86.8H157.474C157.474 75.0283 155.928 65.0429 152.799 56.8743L150.932 57.5896ZM155.474 86.8C155.474 98.4091 153.947 108.18 150.93 116.142L152.801 116.85C155.928 108.599 157.474 98.5722 157.474 86.8H155.474ZM150.932 116.138C147.911 124.024 143.705 129.863 138.352 133.734L139.523 135.354C145.263 131.204 149.676 125.01 152.799 116.854L150.932 116.138ZM138.352 133.734C132.99 137.61 126.714 139.56 119.482 139.56V141.56C127.097 141.56 133.792 139.499 139.523 135.354L138.352 133.734ZM119.482 138.616C126.287 138.616 131.626 135.267 135.447 128.78L133.724 127.764C130.206 133.736 125.476 136.616 119.482 136.616V138.616ZM135.447 128.78C139.255 122.315 141.09 112.367 141.09 99.088H139.09C139.09 112.262 137.255 121.77 133.724 127.764L135.447 128.78ZM141.09 99.088V74.384H139.09V99.088H141.09ZM141.09 74.384C141.09 61.189 139.254 51.2839 135.447 44.8205L133.724 45.8355C137.255 51.8308 139.09 61.2964 139.09 74.384H141.09ZM135.447 44.8205C131.626 38.3334 126.287 34.984 119.482 34.984V36.984C125.476 36.984 130.206 39.8639 133.724 45.8355L135.447 44.8205ZM119.482 34.984C112.676 34.984 107.337 38.3334 103.516 44.8205L105.239 45.8355C108.757 39.8639 113.487 36.984 119.482 36.984V34.984ZM103.516 44.8205C99.7086 51.2839 97.8735 61.189 97.8735 74.384H99.8735C99.8735 61.2964 101.708 51.8308 105.239 45.8355L103.516 44.8205ZM97.8735 74.384V99.088H99.8735V74.384H97.8735ZM97.8735 99.088C97.8735 112.285 99.7092 122.229 103.513 128.774L105.242 127.77C101.707 121.686 99.8735 112.174 99.8735 99.088H97.8735ZM103.516 128.78C107.337 135.267 112.676 138.616 119.482 138.616V136.616C113.487 136.616 108.757 133.736 105.239 127.764L103.516 128.78ZM195.423 138H194.423V139H195.423V138ZM195.423 135.312L195.262 134.325L194.423 134.462V135.312H195.423ZM207.199 133.392L207.359 134.379L208.199 134.242V133.392H207.199ZM207.199 113.424H208.199V112.424H207.199V113.424ZM164.062 113.424H163.062V114.424H164.062V113.424ZM164.062 110.736L163.252 110.15L163.062 110.413V110.736H164.062ZM218.335 35.6V34.6H217.823L217.524 35.0145L218.335 35.6ZM221.279 35.6H222.279V34.6H221.279V35.6ZM221.279 107.408H220.279V108.408H221.279V107.408ZM233.055 107.408H234.055V106.408H233.055V107.408ZM233.055 113.424V114.424H234.055V113.424H233.055ZM221.279 113.424V112.424H220.279V113.424H221.279ZM221.279 133.392H220.279V134.242L221.118 134.379L221.279 133.392ZM233.055 135.312H234.055V134.462L233.215 134.325L233.055 135.312ZM233.055 138V139H234.055V138H233.055ZM170.335 107.408L169.524 106.823L168.379 108.408H170.335V107.408ZM207.199 107.408V108.408H208.199V107.408H207.199ZM207.199 56.336H208.199V53.242L206.388 55.7507L207.199 56.336ZM196.423 138V135.312H194.423V138H196.423ZM195.583 136.299L207.359 134.379L207.038 132.405L195.262 134.325L195.583 136.299ZM208.199 133.392V113.424H206.199V133.392H208.199ZM207.199 112.424H164.062V114.424H207.199V112.424ZM165.062 113.424V110.736H163.062V113.424H165.062ZM164.873 111.322L219.145 36.1855L217.524 35.0145L163.252 110.15L164.873 111.322ZM218.335 36.6H221.279V34.6H218.335V36.6ZM220.279 35.6V107.408H222.279V35.6H220.279ZM221.279 108.408H233.055V106.408H221.279V108.408ZM232.055 107.408V113.424H234.055V107.408H232.055ZM233.055 112.424H221.279V114.424H233.055V112.424ZM220.279 113.424V133.392H222.279V113.424H220.279ZM221.118 134.379L232.894 136.299L233.215 134.325L221.439 132.405L221.118 134.379ZM232.055 135.312V138H234.055V135.312H232.055ZM233.055 137H195.423V139H233.055V137ZM170.335 108.408H207.199V106.408H170.335V108.408ZM208.199 107.408V56.336H206.199V107.408H208.199ZM206.388 55.7507L169.524 106.823L171.145 107.993L208.009 56.9213L206.388 55.7507Z" fill="black"/>
</svg>
